<?xml version="1.0" encoding="utf-8"?>
<!-- Generator: Adobe Illustrator 25.4.1, SVG Export Plug-In . SVG Version: 6.00 Build 0)  -->
<svg version="1.1" id="Livello_1" xmlns="http://www.w3.org/2000/svg" xmlns:xlink="http://www.w3.org/1999/xlink" x="0px" y="0px"
	 viewBox="0 0 723.15 248.2" style="enable-background:new 0 0 723.15 248.2;" xml:space="preserve">
<style type="text/css">
	.st0{fill-rule:evenodd;clip-rule:evenodd;fill:#FFFFFF;}
	.st1{fill-rule:evenodd;clip-rule:evenodd;fill:#008448;}
	.st2{fill:#008448;}
	.st3{fill:#FFFFFF;}
	.st4{fill:#FFFFFF;stroke:#FFFFFF;stroke-miterlimit:3.8637;}
	.st5{fill:#FFFFFF;stroke:#FFFFFF;stroke-width:3;stroke-miterlimit:3.8637;}
	
		.st6{clip-path:url(#SVGID_00000105409245646965720300000004007990676205729937_);fill:none;stroke:#FFFFFF;stroke-width:1.4173;stroke-miterlimit:3.8637;}
	
		.st7{clip-path:url(#SVGID_00000105409245646965720300000004007990676205729937_);fill:none;stroke:#FFFFFF;stroke-miterlimit:3.8637;}
</style>
<rect x="14.24" y="68.33" class="st0" width="293.33" height="113.69"/>
<path class="st1" d="M723.15,83.01c0,7.27,0,78.62,0,84.92c0,6.52-5.63,11.92-12.75,11.92c-10.48,0-420.73,0-420.73,0V70.17
	c0,0,412.79,0,420.38,0C718.54,70.17,723.15,75.84,723.15,83.01z M13.3,179.86h28.26V70.17H13.48c-0.5,0-1.45,0-2.57,0
	c-1.15,0-2.48,0-3.66,0C2.62,70.17,0,74.73,0,77.87c0,2.72,0,87.66,0,93.2c0,5.54,3.52,8.79,9.84,8.79
	C11.02,179.86,12.23,179.86,13.3,179.86L13.3,179.86z M274.5,181.7v-0.34v-1.5V68.33h5.59h9.58h17.9c0-0.16,0-0.32,0-0.48
	c0-6.12-8.23-9.86-21.93-9.86c-1.38,0-2.15-0.01-5.95-0.01c-17.05-0.15-22.28-8.46-32.05-16.17c-9.77-7.71-15.4-12.31-15.4-12.31
	s-7.93,3.16-16.91-0.84c-8.97-4-8.61-13.66-8.61-13.66s-15.93-7.24-28.9-4.51c0,2.74,0,9.43,0,9.43l-30.76,0.1
	c0,0,0.11-5.48,0-10.84c-19.69,0-21.09,4.88-23.63,7.7c-0.17,1.54,0.43,5.22-6.86,10.77c-8.27,5.9-16.21,2.6-18.67,0.93
	C77.66,40.42,74.76,46.86,65.5,52.98c-9.99,6.33-28.3,4.74-31.89,4.74c-7.8,0-10.32,1.65-14.28,4.36c-2.63,1.8-4.24,4.46-5.09,6.26
	h42.5V181.7l-42.5,0c0.11,6.56,2.51,10.57,20.27,10.57c5.69,0,1.37,0,14.98,0c13.61,0,23.02,14.82,36.11,25.86
	c13.08,11.04,37.97,30.08,80.96,30.08c39.11,0,67.81-21.55,81.23-34.97c13.61-13.36,20.3-20.65,41.29-20.65
	c16.13,0,18.14-6.75,18.38-10.88H274.5z M150.7,17.04c7.92,0,15.84,0,23.76,0c0-5.68,0-11.36,0-17.04c-7.92,0-15.84,0-23.76,0
	C150.7,5.68,150.7,11.36,150.7,17.04z M98.45,26.12c3.61,5.48,15.72-1.14,15.72-1.14s11.22-7.89,6.75-13.32
	c-4.47-5.43-16.2,2.04-16.2,2.04S94.84,20.65,98.45,26.12z M225.71,13.05c0,0-11.72-7.47-16.2-2.04
	c-4.47,5.43,6.75,13.32,6.75,13.32s12.12,6.62,15.72,1.14C235.6,20,225.71,13.05,225.71,13.05z"/>
<path class="st2" d="M365.75,194.94h12.48l-0.82,3.08h-8.83l-1.1,4.1h7.73l-0.82,3.08h-7.73l-1.98,7.38h-3.65L365.75,194.94z"/>
<path class="st2" d="M391.85,195.39c0.57,0.28,1.01,0.69,1.32,1.23c0.25,0.45,0.41,0.94,0.49,1.48c0.07,0.54,0.02,1.16-0.17,1.85
	c-0.22,0.84-0.66,1.66-1.29,2.47c-0.64,0.81-1.48,1.38-2.53,1.71c0.71,0.33,1.15,0.79,1.32,1.39c0.17,0.6,0.09,1.52-0.24,2.76
	l-0.32,1.19c-0.22,0.81-0.33,1.36-0.34,1.64c-0.02,0.46,0.12,0.79,0.43,1.01l-0.12,0.44h-4.03c-0.01-0.39-0.01-0.71,0.01-0.95
	c0.04-0.5,0.12-1,0.25-1.52l0.42-1.64c0.29-1.13,0.29-1.88,0.02-2.26c-0.27-0.37-0.92-0.56-1.95-0.56h-3.6l-1.86,6.93h-3.61
	l4.72-17.64h8.42C390.39,194.96,391.27,195.11,391.85,195.39z M383.56,198.01l-1.26,4.72h3.97c0.79,0,1.41-0.09,1.85-0.29
	c0.79-0.33,1.31-0.99,1.58-1.98c0.29-1.06,0.14-1.78-0.44-2.14c-0.32-0.21-0.87-0.31-1.62-0.31H383.56z"/>
<path class="st2" d="M403.39,194.94h4.14l1.49,17.64h-3.99l-0.18-3.57h-6.51l-2.13,3.57h-3.83L403.39,194.94z M400.18,205.93h4.51
	l-0.36-6.96L400.18,205.93z"/>
<path class="st2" d="M415.97,194.94h3.83l3.71,12.3l3.3-12.3h3.4l-4.73,17.64h-3.65L418,200.05l-3.35,12.52h-3.4L415.97,194.94z"/>
<path class="st2" d="M434.84,196.82c1.8-1.45,3.8-2.17,5.98-2.17c2.92,0,4.8,0.97,5.63,2.91c0.46,1.09,0.56,2.18,0.32,3.28h-3.65
	c-0.01-0.84-0.14-1.47-0.39-1.9c-0.45-0.76-1.32-1.14-2.6-1.14c-1.31,0-2.48,0.54-3.52,1.62c-1.04,1.08-1.83,2.6-2.36,4.57
	c-0.53,1.97-0.53,3.45,0,4.43c0.53,0.98,1.41,1.47,2.63,1.47c1.25,0,2.32-0.42,3.21-1.27c0.49-0.46,0.97-1.14,1.45-2.05h3.65
	c-0.83,1.92-2.05,3.48-3.66,4.68c-1.62,1.2-3.43,1.8-5.45,1.8c-2.5,0-4.25-0.81-5.24-2.43c-0.99-1.63-1.11-3.87-0.35-6.71
	C431.33,200.85,432.77,198.49,434.84,196.82z"/>
<path class="st2" d="M446.57,212.58l4.73-17.64h3.65l-1.8,6.73h6.84l1.8-6.73h3.65l-4.72,17.64h-3.65l2.1-7.83h-6.84l-2.1,7.83
	H446.57z"/>
<path class="st2" d="M467.59,212.58h-3.65l4.73-17.64h3.65L467.59,212.58z"/>
<path class="st2" d="M475.17,207.08c-0.1,0.81-0.04,1.41,0.18,1.82c0.41,0.73,1.35,1.09,2.82,1.09c0.88,0,1.62-0.09,2.22-0.29
	c1.14-0.37,1.84-1.05,2.11-2.05c0.15-0.58,0.02-1.03-0.41-1.35c-0.43-0.31-1.17-0.59-2.21-0.82l-1.78-0.42
	c-1.75-0.41-2.9-0.86-3.48-1.34c-0.97-0.81-1.22-2.07-0.76-3.8c0.42-1.57,1.35-2.87,2.78-3.91c1.43-1.04,3.27-1.56,5.5-1.56
	c1.87,0,3.33,0.49,4.39,1.47c1.06,0.98,1.37,2.4,0.93,4.27h-3.52c0.21-1.05-0.05-1.79-0.81-2.23c-0.5-0.29-1.19-0.43-2.06-0.43
	c-0.96,0-1.78,0.19-2.46,0.57c-0.68,0.38-1.1,0.91-1.29,1.58c-0.17,0.62-0.01,1.09,0.47,1.39c0.31,0.21,1.02,0.45,2.13,0.72
	l2.87,0.73c1.26,0.31,2.15,0.74,2.68,1.27c0.82,0.83,1.02,2.02,0.6,3.59c-0.43,1.61-1.41,2.94-2.93,4
	c-1.52,1.06-3.41,1.59-5.67,1.59c-2.31,0-3.98-0.52-5.02-1.57c-1.04-1.05-1.32-2.49-0.82-4.33H475.17z"/>
<path class="st2" d="M490.69,212.58h-3.65l4.72-17.64h3.65L490.69,212.58z"/>
<path class="st2" d="M498.86,194.94h3.83l3.71,12.3l3.29-12.3h3.4l-4.72,17.64h-3.65l-3.82-12.52l-3.36,12.52h-3.4L498.86,194.94z"
	/>
<path class="st2" d="M526.88,200.48c0.05-1.2-0.41-2.04-1.36-2.52c-0.53-0.26-1.16-0.39-1.9-0.39c-1.41,0-2.71,0.53-3.9,1.59
	c-1.19,1.06-2.07,2.65-2.64,4.78c-0.57,2.15-0.49,3.66,0.25,4.55c0.75,0.89,1.74,1.33,3,1.33c1.23,0,2.33-0.34,3.3-1.03
	c0.97-0.69,1.69-1.59,2.17-2.7h-4.07l0.79-2.95h7.35l-2.53,9.43h-2.42l0.19-2.2c-0.93,0.82-1.72,1.39-2.37,1.73
	c-1.13,0.58-2.4,0.88-3.81,0.88c-2.33,0-4.02-0.8-5.07-2.41c-1.11-1.62-1.3-3.83-0.54-6.64c0.76-2.84,2.16-5.12,4.18-6.83
	c2.03-1.72,4.33-2.57,6.91-2.57c2.24,0,3.88,0.57,4.94,1.7c1.05,1.13,1.45,2.55,1.2,4.24H526.88z"/>
<path class="st2" d="M542.34,194.94h3.83l3.71,12.3l3.29-12.3h3.4l-4.72,17.64h-3.65l-3.83-12.52l-3.35,12.52h-3.4L542.34,194.94z"
	/>
<path class="st2" d="M572.21,198.1h-9.31l-1,3.73h8.55l-0.82,3.08h-8.55l-1.21,4.51h9.74l-0.85,3.16H555.4l4.71-17.59h12.92
	L572.21,198.1z"/>
<path class="st2" d="M589.18,194.94l-0.84,3.12h-5.31l-3.89,14.52h-3.65l3.89-14.52h-5.31l0.84-3.12H589.18z"/>
<path class="st2" d="M593.7,194.94l-0.37,10.1l-0.25,2.81l1.25-2.75l4.7-10.16h3.88l-0.62,10.1l-0.22,2.81l1.26-2.7l5.07-10.21h3.74
	l-9.65,17.64h-3.52l0.64-10.33l0.29-3.4l-1.53,3.41l-4.89,10.31h-3.41l-0.28-17.64H593.7z"/>
<path class="st2" d="M623.63,211.01c-1.69,1.37-3.8,2.05-6.31,2.05c-2.51,0-4.25-0.68-5.21-2.05c-1.33-1.68-1.58-4.1-0.73-7.26
	c0.86-3.22,2.4-5.64,4.62-7.26c1.69-1.37,3.8-2.05,6.31-2.05c2.51,0,4.25,0.68,5.21,2.05c1.34,1.62,1.58,4.04,0.72,7.26
	C627.39,206.92,625.85,209.34,623.63,211.01z M622.08,208.31c1.14-1.07,1.98-2.58,2.5-4.55c0.53-1.96,0.5-3.47-0.07-4.55
	c-0.57-1.07-1.58-1.61-3.04-1.61c-1.46,0-2.77,0.53-3.92,1.6c-1.16,1.07-2,2.58-2.52,4.55c-0.53,1.97-0.5,3.49,0.08,4.55
	c0.58,1.07,1.61,1.6,3.06,1.6C619.64,209.91,620.94,209.38,622.08,208.31z"/>
<path class="st2" d="M644.56,195.39c0.57,0.28,1.01,0.69,1.32,1.23c0.25,0.45,0.41,0.94,0.49,1.48c0.07,0.54,0.02,1.16-0.17,1.85
	c-0.22,0.84-0.65,1.66-1.29,2.47c-0.64,0.81-1.48,1.38-2.53,1.71c0.71,0.33,1.15,0.79,1.32,1.39c0.17,0.6,0.09,1.52-0.24,2.76
	l-0.32,1.19c-0.22,0.81-0.33,1.36-0.34,1.64c-0.02,0.46,0.12,0.79,0.44,1.01l-0.12,0.44h-4.03c-0.01-0.39-0.01-0.71,0.01-0.95
	c0.04-0.5,0.12-1,0.25-1.52l0.42-1.64c0.29-1.13,0.29-1.88,0.02-2.26c-0.27-0.37-0.92-0.56-1.95-0.56h-3.6l-1.86,6.93h-3.61
	l4.73-17.64h8.42C643.1,194.96,643.99,195.11,644.56,195.39z M636.27,198.01l-1.26,4.72h3.97c0.79,0,1.41-0.09,1.85-0.29
	c0.79-0.33,1.31-0.99,1.58-1.98c0.28-1.06,0.14-1.78-0.44-2.14c-0.32-0.21-0.86-0.31-1.62-0.31H636.27z"/>
<path class="st2" d="M651.11,194.94h3.65l-1.95,7.28l8.78-7.28h4.75l-9.18,7.26l4.83,10.38h-4.73l-3.38-7.7l-2.26,1.8l-1.58,5.9
	h-3.65L651.11,194.94z"/>
<polygon class="st3" points="343.91,85.11 341.29,100.96 330.66,100.96 320.2,164.31 302.3,164.31 312.77,100.96 302.18,100.96 
	304.8,85.11 343.91,85.11 "/>
<polygon class="st3" points="347.99,85.11 377.84,85.11 375.22,100.96 363.27,100.96 360.79,115.98 371.97,115.98 369.48,131.05 
	358.3,131.05 355.42,148.46 368.56,148.46 365.94,164.31 334.91,164.31 347.99,85.11 "/>
<path class="st3" d="M438.23,85.11l-13.08,79.2H409.5l8.83-53.47l-15.08,53.47h-11.1l2.04-52.25l-8.63,52.25h-15.65l13.09-79.2
	h23.17c-0.11,4.76-0.31,10.37-0.61,16.83l-0.87,20.16l10.19-36.99H438.23L438.23,85.11z"/>
<path class="st0" d="M444.49,85.11h18.03c4.88,0,8.54,0.44,11.01,1.32c2.49,0.88,4.25,2.15,5.28,3.82c1.06,1.66,1.62,3.69,1.68,6.07
	c0.09,2.35-0.27,6-1.09,10.96l-1.14,6.9c-0.83,5.06-1.9,8.74-3.19,11.06c-1.29,2.31-3.26,4.09-5.9,5.33
	c-2.61,1.24-5.88,1.86-9.79,1.86h-4.8l-5.27,31.9h-17.9L444.49,85.11L444.49,85.11z M460.15,98.66l-3.33,20.15
	c0.5,0.03,0.94,0.05,1.31,0.05c1.64,0,2.85-0.46,3.63-1.37c0.8-0.95,1.45-2.89,1.94-5.82l1.08-6.51c0.45-2.71,0.37-4.47-0.23-5.28
	C463.94,99.07,462.48,98.66,460.15,98.66L460.15,98.66z"/>
<path class="st0" d="M520.61,131.49c-1.32,7.96-2.42,13.6-3.31,16.92c-0.86,3.3-2.38,6.31-4.56,9.05c-2.15,2.74-4.81,4.84-7.97,6.31
	c-3.16,1.47-6.69,2.2-10.57,2.2c-3.69,0-6.89-0.69-9.61-2.05c-2.69-1.4-4.7-3.49-6.02-6.26c-1.33-2.77-1.89-5.79-1.69-9.05
	c0.2-3.26,0.97-8.97,2.32-17.12l2.24-13.55c1.32-7.96,2.4-13.58,3.26-16.88c0.89-3.33,2.41-6.36,4.56-9.1
	c2.18-2.74,4.85-4.84,8.02-6.31c3.16-1.47,6.68-2.2,10.57-2.2c3.68,0,6.87,0.7,9.56,2.1c2.72,1.37,4.74,3.44,6.07,6.21
	c1.33,2.77,1.89,5.79,1.69,9.05c-0.2,3.26-0.97,8.97-2.32,17.12L520.61,131.49L520.61,131.49z M507.01,105.46
	c0.61-3.68,0.81-6.03,0.61-7.04c-0.17-1.04-0.8-1.57-1.91-1.57c-0.93,0-1.73,0.42-2.38,1.27c-0.62,0.82-1.26,3.26-1.93,7.34
	l-6.11,36.98c-0.76,4.6-1.07,7.44-0.94,8.51c0.16,1.08,0.84,1.61,2.03,1.61c1.22,0,2.1-0.62,2.65-1.86c0.55-1.24,1.2-4.19,1.97-8.85
	L507.01,105.46L507.01,105.46z"/>
<path class="st3" d="M570.94,119.65h-17.9l2.28-13.8c0.66-4.01,0.88-6.51,0.64-7.48c-0.2-1.01-0.96-1.52-2.26-1.52
	c-1.47,0-2.51,0.6-3.1,1.81c-0.6,1.21-1.23,3.82-1.89,7.83l-6.08,36.79c-0.64,3.85-0.85,6.36-0.65,7.53c0.2,1.17,1,1.76,2.39,1.76
	c1.33,0,2.29-0.59,2.88-1.76c0.62-1.17,1.29-3.93,2-8.27l1.64-9.93h17.9l-0.51,3.08c-1.35,8.19-2.82,13.99-4.41,17.42
	c-1.56,3.42-4.28,6.42-8.16,9c-3.86,2.58-8.31,3.86-13.35,3.87c-5.24,0-9.38-1.09-12.42-3.28c-3.04-2.18-4.8-5.2-5.27-9.05
	c-0.46-3.88-0.05-9.7,1.23-17.46l3.82-23.14c0.94-5.71,1.82-9.98,2.63-12.82c0.82-2.87,2.28-5.62,4.39-8.27
	c2.13-2.64,4.82-4.71,8.04-6.21c3.26-1.53,6.83-2.3,10.71-2.3c5.27,0,9.43,1.17,12.47,3.52c3.04,2.35,4.81,5.28,5.31,8.81
	c0.5,3.49,0.14,8.94-1.08,16.34L570.94,119.65L570.94,119.65z"/>
<path class="st0" d="M612.97,85.11l-2.84,79.2h-18.32l1.46-14.24h-6.42l-3.41,14.24H564.9l22.18-79.2H612.97L612.97,85.11z
	 M595.08,136.04c0.57-8.97,1.5-20.04,2.77-33.22c-4.31,15.13-7.28,26.21-8.89,33.22H595.08L595.08,136.04z"/>
<path class="st3" d="M660.24,109.08h-16.62l0.97-5.87c0.45-2.74,0.53-4.48,0.23-5.23c-0.3-0.75-0.95-1.12-1.94-1.12
	c-1.08,0-1.98,0.5-2.71,1.52c-0.71,1.01-1.23,2.54-1.57,4.6c-0.44,2.64-0.46,4.63-0.05,5.97c0.38,1.34,1.79,2.95,4.26,4.84
	c7.06,5.45,11.34,9.92,12.83,13.41c1.49,3.49,1.6,9.12,0.32,16.88c-0.93,5.64-2.2,9.8-3.8,12.47c-1.58,2.67-4.16,4.93-7.75,6.75
	c-3.58,1.79-7.56,2.69-11.92,2.69c-4.79,0-8.71-1.04-11.77-3.13c-3.03-2.09-4.8-4.74-5.31-7.97c-0.52-3.23-0.28-7.81,0.7-13.75
	l0.86-5.19h16.62l-1.59,9.64c-0.49,2.97-0.58,4.88-0.27,5.72c0.34,0.85,1.11,1.27,2.3,1.27s2.16-0.54,2.9-1.61
	c0.77-1.08,1.33-2.67,1.68-4.79c0.77-4.66,0.72-7.71-0.15-9.15c-0.9-1.43-3.29-3.83-7.19-7.19c-3.89-3.39-6.43-5.85-7.62-7.39
	c-1.19-1.53-2.05-3.65-2.56-6.36c-0.49-2.71-0.38-6.16,0.31-10.37c1-6.07,2.4-10.5,4.2-13.31c1.82-2.8,4.37-4.99,7.63-6.55
	c3.27-1.6,7.03-2.4,11.28-2.4c4.65,0,8.46,0.86,11.43,2.59c3,1.73,4.81,3.91,5.42,6.55c0.65,2.61,0.45,7.06-0.59,13.36
	L660.24,109.08L660.24,109.08z"/>
<path class="st0" d="M702.21,85.11l-2.84,79.2h-18.32l1.46-14.24h-6.42l-3.41,14.24h-18.54l22.18-79.2H702.21L702.21,85.11z
	 M684.31,136.04c0.57-8.97,1.5-20.04,2.77-33.22c-4.31,15.13-7.28,26.21-8.89,33.22H684.31L684.31,136.04z"/>
<polygon class="st3" points="80.01,128.37 80.01,117.03 99.42,117.03 99.42,128.37 80.01,128.37 "/>
<polygon class="st3" points="231.25,128.37 231.25,117.03 250.66,117.03 250.66,128.37 231.25,128.37 "/>
<polygon class="st3" points="159.45,194.05 170.78,194.05 170.78,213.46 159.45,213.46 159.45,194.05 "/>
<path class="st3" d="M156.11,125.85c0-5.35,4.34-9.69,9.69-9.69c5.35,0,9.69,4.34,9.69,9.69c0,5.35-4.34,9.69-9.69,9.69
	C160.45,135.54,156.11,131.2,156.11,125.85L156.11,125.85z"/>
<polygon class="st4" points="158.67,138.5 174.03,138.5 166.15,197 158.67,138.5 "/>
<polygon class="st4" points="149.82,124.88 158.41,137.61 105.5,163.8 149.82,124.88 "/>
<path class="st5" d="M166.11,140.9v-5.84 M157.4,128.7l-5.38,3.21"/>
<polygon class="st3" points="159.45,41.35 170.78,41.35 170.78,60.76 159.45,60.76 159.45,41.35 "/>
<g>
	<defs>
		<path id="SVGID_1_" d="M72.63,126.13c0-51.76,41.96-93.72,93.72-93.72c51.76,0,93.72,41.96,93.72,93.72
			c0,51.76-41.96,93.72-93.72,93.72C114.59,219.85,72.63,177.89,72.63,126.13L72.63,126.13z"/>
	</defs>
	<clipPath id="SVGID_00000023981939808974881850000010273271154999317909_">
		<use xlink:href="#SVGID_1_"  style="overflow:visible;"/>
	</clipPath>
	
		<path style="clip-path:url(#SVGID_00000023981939808974881850000010273271154999317909_);fill:none;stroke:#FFFFFF;stroke-width:1.4173;stroke-miterlimit:3.8637;" d="
		M259.06,52.68 M56.39,52.68"/>
	
		<line style="clip-path:url(#SVGID_00000023981939808974881850000010273271154999317909_);fill:none;stroke:#FFFFFF;stroke-miterlimit:3.8637;" x1="56.39" y1="221.13" x2="259.06" y2="221.13"/>
	
		<path style="clip-path:url(#SVGID_00000023981939808974881850000010273271154999317909_);fill:none;stroke:#FFFFFF;stroke-width:1.4173;stroke-miterlimit:3.8637;" d="
		M209.43,69.52"/>
	
		<path style="clip-path:url(#SVGID_00000023981939808974881850000010273271154999317909_);fill:none;stroke:#FFFFFF;stroke-width:1.4173;stroke-miterlimit:3.8637;" d="
		M259.06,36.54 M56.39,36.54"/>
	<use xlink:href="#SVGID_1_"  style="overflow:visible;fill:none;stroke:#FFFFFF;stroke-width:3;stroke-miterlimit:3.8637;"/>
</g>
<polygon class="st3" points="111.22,74.03 110.31,79.56 106.6,79.56 102.94,101.7 96.68,101.7 100.34,79.56 96.64,79.56 
	97.56,74.03 111.22,74.03 "/>
<polygon class="st3" points="112.65,74.03 123.08,74.03 122.16,79.56 117.99,79.56 117.12,84.81 121.03,84.81 120.16,90.08 
	116.25,90.08 115.25,96.16 119.84,96.16 118.92,101.7 108.08,101.7 112.65,74.03 "/>
<path class="st3" d="M144.18,74.03l-4.57,27.68h-5.47l3.09-18.68l-5.27,18.68h-3.88l0.71-18.26l-3.02,18.26h-5.47l4.57-27.68h8.1
	c-0.04,1.66-0.11,3.62-0.21,5.88l-0.3,7.04l3.56-12.92H144.18L144.18,74.03z"/>
<path class="st0" d="M146.37,74.03h6.3c1.7,0,2.99,0.15,3.85,0.46c0.87,0.31,1.48,0.75,1.84,1.33c0.37,0.58,0.56,1.29,0.59,2.12
	c0.03,0.82-0.1,2.1-0.38,3.83l-0.4,2.41c-0.29,1.77-0.66,3.05-1.11,3.86c-0.45,0.81-1.14,1.43-2.06,1.86
	c-0.91,0.43-2.05,0.65-3.42,0.65h-1.68l-1.84,11.15h-6.25L146.37,74.03L146.37,74.03z M151.84,78.76l-1.16,7.04
	c0.18,0.01,0.33,0.02,0.46,0.02c0.57,0,1-0.16,1.27-0.48c0.28-0.33,0.51-1.01,0.68-2.03l0.38-2.27c0.16-0.94,0.13-1.56-0.08-1.84
	C153.17,78.9,152.65,78.76,151.84,78.76L151.84,78.76z"/>
<path class="st0" d="M172.97,90.23c-0.46,2.78-0.84,4.75-1.16,5.91c-0.3,1.15-0.83,2.21-1.59,3.16c-0.75,0.96-1.68,1.69-2.79,2.21
	c-1.11,0.51-2.34,0.77-3.69,0.77c-1.29,0-2.41-0.24-3.36-0.72c-0.94-0.49-1.64-1.22-2.1-2.19c-0.46-0.97-0.66-2.02-0.59-3.16
	c0.07-1.14,0.34-3.13,0.81-5.98l0.78-4.74c0.46-2.78,0.84-4.75,1.14-5.9c0.31-1.16,0.84-2.22,1.6-3.18c0.76-0.96,1.7-1.69,2.8-2.21
	c1.1-0.51,2.34-0.77,3.69-0.77c1.29,0,2.4,0.25,3.34,0.74c0.95,0.48,1.66,1.2,2.12,2.17c0.47,0.97,0.66,2.02,0.59,3.16
	c-0.07,1.14-0.34,3.13-0.81,5.98L172.97,90.23L172.97,90.23z M168.22,81.14c0.21-1.29,0.28-2.11,0.21-2.46
	c-0.06-0.36-0.28-0.55-0.67-0.55c-0.32,0-0.6,0.15-0.83,0.44c-0.21,0.29-0.44,1.14-0.68,2.56l-2.14,12.92
	c-0.27,1.61-0.37,2.6-0.33,2.97c0.06,0.38,0.29,0.56,0.71,0.56c0.43,0,0.73-0.22,0.92-0.65c0.19-0.43,0.42-1.46,0.69-3.09
	L168.22,81.14L168.22,81.14z"/>
<path class="st3" d="M190.55,86.09h-6.25l0.8-4.82c0.23-1.4,0.31-2.28,0.22-2.62c-0.07-0.35-0.33-0.53-0.79-0.53
	c-0.52,0-0.88,0.21-1.08,0.63c-0.21,0.42-0.43,1.33-0.66,2.74l-2.12,12.86c-0.22,1.34-0.3,2.22-0.23,2.63
	c0.07,0.41,0.35,0.61,0.83,0.61c0.47,0,0.8-0.2,1.01-0.61c0.22-0.41,0.45-1.37,0.7-2.89l0.57-3.47h6.25l-0.18,1.08
	c-0.47,2.86-0.99,4.89-1.54,6.09c-0.54,1.2-1.5,2.25-2.85,3.14c-1.35,0.9-2.9,1.35-4.66,1.35c-1.83,0-3.28-0.38-4.34-1.15
	c-1.06-0.76-1.68-1.82-1.84-3.16c-0.16-1.36-0.02-3.39,0.43-6.1l1.34-8.09c0.33-1.99,0.63-3.49,0.92-4.48c0.29-1,0.8-1.97,1.53-2.89
	c0.75-0.92,1.68-1.65,2.81-2.17c1.14-0.54,2.39-0.8,3.74-0.8c1.84,0,3.29,0.41,4.36,1.23c1.06,0.82,1.68,1.85,1.85,3.08
	c0.17,1.22,0.05,3.12-0.38,5.71L190.55,86.09L190.55,86.09z"/>
<path class="st0" d="M205.24,74.03l-0.99,27.68h-6.4l0.51-4.98h-2.24l-1.19,4.98h-6.48l7.75-27.68H205.24L205.24,74.03z
	 M198.99,91.82c0.2-3.13,0.52-7,0.97-11.61c-1.51,5.29-2.54,9.16-3.11,11.61H198.99L198.99,91.82z"/>
<path class="st3" d="M221.76,82.4h-5.81l0.34-2.05c0.16-0.96,0.18-1.57,0.08-1.83c-0.11-0.26-0.33-0.39-0.68-0.39
	c-0.38,0-0.69,0.17-0.95,0.53c-0.25,0.35-0.43,0.89-0.55,1.61c-0.15,0.92-0.16,1.62-0.02,2.09c0.13,0.47,0.63,1.03,1.49,1.69
	c2.47,1.9,3.96,3.47,4.49,4.68c0.52,1.22,0.56,3.19,0.11,5.9c-0.33,1.97-0.77,3.42-1.33,4.36c-0.55,0.94-1.45,1.72-2.71,2.36
	c-1.25,0.63-2.64,0.94-4.17,0.94c-1.68,0-3.04-0.36-4.11-1.09c-1.06-0.73-1.68-1.66-1.86-2.79c-0.18-1.13-0.1-2.73,0.24-4.8
	l0.3-1.81h5.81l-0.56,3.37c-0.17,1.04-0.2,1.7-0.09,2c0.12,0.3,0.39,0.44,0.8,0.44c0.42,0,0.75-0.19,1.01-0.56
	c0.27-0.38,0.47-0.93,0.59-1.67c0.27-1.63,0.25-2.7-0.05-3.2c-0.31-0.5-1.15-1.34-2.51-2.51c-1.36-1.19-2.25-2.05-2.66-2.58
	c-0.42-0.54-0.72-1.28-0.9-2.22c-0.17-0.95-0.13-2.15,0.11-3.62c0.35-2.12,0.84-3.67,1.47-4.65c0.64-0.98,1.53-1.74,2.67-2.29
	c1.14-0.56,2.46-0.84,3.94-0.84c1.62,0,2.96,0.3,4,0.91c1.05,0.6,1.68,1.37,1.89,2.29c0.23,0.91,0.16,2.47-0.21,4.67L221.76,82.4
	L221.76,82.4z"/>
<path class="st0" d="M236.42,74.03l-0.99,27.68h-6.4l0.51-4.98h-2.24l-1.19,4.98h-6.48l7.75-27.68H236.42L236.42,74.03z
	 M230.17,91.82c0.2-3.13,0.52-7,0.97-11.61c-1.51,5.29-2.54,9.16-3.11,11.61H230.17L230.17,91.82z"/>
<path class="st0" d="M704.72,155.79c-0.96,0.96-1.44,2.13-1.44,3.49c0,1.37,0.48,2.55,1.43,3.51c0.96,0.97,2.12,1.45,3.49,1.45
	c1.37,0,2.53-0.48,3.49-1.45c0.96-0.97,1.44-2.14,1.44-3.51c0-1.36-0.48-2.53-1.44-3.49c-0.96-0.97-2.13-1.45-3.49-1.45
	C706.85,154.33,705.68,154.82,704.72,155.79L704.72,155.79z M712.26,163.34c-1.12,1.12-2.47,1.69-4.06,1.69
	c-1.59,0-2.94-0.56-4.05-1.69c-1.11-1.12-1.66-2.47-1.66-4.07c0-1.58,0.56-2.92,1.68-4.04c1.11-1.12,2.46-1.67,4.04-1.67
	c1.59,0,2.94,0.56,4.06,1.67c1.12,1.11,1.68,2.46,1.68,4.04C713.94,160.86,713.38,162.22,712.26,163.34L712.26,163.34z
	 M709.28,157.1c-0.28-0.16-0.72-0.24-1.34-0.24H707v2.28h1c0.47,0,0.82-0.05,1.05-0.14c0.43-0.17,0.65-0.5,0.65-0.98
	C709.7,157.57,709.56,157.26,709.28,157.1L709.28,157.1z M708.09,156.11c0.78,0,1.35,0.08,1.72,0.23c0.65,0.27,0.97,0.8,0.97,1.59
	c0,0.56-0.21,0.98-0.62,1.24c-0.22,0.14-0.52,0.24-0.91,0.31c0.5,0.08,0.86,0.28,1.09,0.62c0.23,0.33,0.34,0.66,0.34,0.98v0.46
	c0,0.15,0,0.3,0.02,0.47c0.01,0.17,0.03,0.28,0.05,0.33l0.04,0.08h-1.04c0-0.02-0.01-0.04-0.02-0.06c0-0.02-0.01-0.04-0.02-0.07
	l-0.02-0.2v-0.5c0-0.73-0.2-1.21-0.59-1.44c-0.23-0.14-0.65-0.2-1.23-0.2H707v2.48h-1.11v-6.29H708.09L708.09,156.11z"/>
</svg>
